<mxfile host="app.diagrams.net" agent="Mozilla/5.0 (Windows NT 10.0; Win64; x64) AppleWebKit/537.36 (KHTML, like Gecko) Chrome/134.0.0.0 Safari/537.36" version="26.1.3">
  <diagram name="Page-1" id="74e2e168-ea6b-b213-b513-2b3c1d86103e">
    <mxGraphModel dx="875" dy="464" grid="1" gridSize="10" guides="1" tooltips="1" connect="1" arrows="1" fold="1" page="1" pageScale="1" pageWidth="1100" pageHeight="850" background="none" math="0" shadow="0">
      <root>
        <mxCell id="0" />
        <mxCell id="1" parent="0" />
        <mxCell id="NZkgFXMT-zY_Wta7pg8u-1" value="&lt;font style=&quot;font-size: 18px;&quot;&gt;平衡检修计划&lt;/font&gt;" style="swimlane;html=1;childLayout=stackLayout;startSize=20;rounded=0;shadow=0;labelBackgroundColor=none;strokeWidth=1;fontFamily=Verdana;fontSize=8;align=center;" vertex="1" parent="1">
          <mxGeometry x="70" y="20" width="800" height="570" as="geometry" />
        </mxCell>
        <mxCell id="NZkgFXMT-zY_Wta7pg8u-2" value="接收请求" style="swimlane;html=1;startSize=20;" vertex="1" parent="NZkgFXMT-zY_Wta7pg8u-1">
          <mxGeometry y="20" width="160" height="550" as="geometry">
            <mxRectangle y="20" width="40" height="730" as="alternateBounds" />
          </mxGeometry>
        </mxCell>
        <mxCell id="NZkgFXMT-zY_Wta7pg8u-3" style="edgeStyle=orthogonalEdgeStyle;rounded=0;orthogonalLoop=1;jettySize=auto;html=1;exitX=0.5;exitY=1;exitDx=0;exitDy=0;entryX=0.5;entryY=0;entryDx=0;entryDy=0;" edge="1" parent="NZkgFXMT-zY_Wta7pg8u-2" source="NZkgFXMT-zY_Wta7pg8u-4" target="NZkgFXMT-zY_Wta7pg8u-5">
          <mxGeometry relative="1" as="geometry" />
        </mxCell>
        <mxCell id="NZkgFXMT-zY_Wta7pg8u-4" value="&lt;font style=&quot;font-size: 12px;&quot;&gt;开始&lt;/font&gt;" style="rounded=1;whiteSpace=wrap;html=1;shadow=0;labelBackgroundColor=none;strokeWidth=1;fontFamily=Verdana;fontSize=8;align=center;" vertex="1" parent="NZkgFXMT-zY_Wta7pg8u-2">
          <mxGeometry x="20" y="60" width="100" height="60" as="geometry" />
        </mxCell>
        <mxCell id="NZkgFXMT-zY_Wta7pg8u-5" value="&lt;font style=&quot;font-size: 12px;&quot;&gt;参数验证&lt;/font&gt;" style="rhombus;whiteSpace=wrap;html=1;rounded=0;shadow=0;labelBackgroundColor=none;strokeWidth=1;fontFamily=Verdana;fontSize=8;align=center;" vertex="1" parent="NZkgFXMT-zY_Wta7pg8u-2">
          <mxGeometry x="20" y="160" width="100" height="75" as="geometry" />
        </mxCell>
        <mxCell id="NZkgFXMT-zY_Wta7pg8u-6" style="edgeStyle=orthogonalEdgeStyle;rounded=0;orthogonalLoop=1;jettySize=auto;html=1;exitX=0.5;exitY=1;exitDx=0;exitDy=0;entryX=0.5;entryY=0;entryDx=0;entryDy=0;" edge="1" parent="NZkgFXMT-zY_Wta7pg8u-2" source="NZkgFXMT-zY_Wta7pg8u-5" target="NZkgFXMT-zY_Wta7pg8u-8">
          <mxGeometry relative="1" as="geometry">
            <mxPoint x="70" y="980" as="targetPoint" />
          </mxGeometry>
        </mxCell>
        <mxCell id="NZkgFXMT-zY_Wta7pg8u-7" value="否" style="edgeLabel;html=1;align=center;verticalAlign=middle;resizable=0;points=[];" vertex="1" connectable="0" parent="NZkgFXMT-zY_Wta7pg8u-6">
          <mxGeometry x="-0.24" y="-1" relative="1" as="geometry">
            <mxPoint as="offset" />
          </mxGeometry>
        </mxCell>
        <mxCell id="NZkgFXMT-zY_Wta7pg8u-8" value="&lt;span style=&quot;font-size: 12px;&quot;&gt;失败返回&lt;/span&gt;" style="whiteSpace=wrap;html=1;fontSize=8;fontFamily=Verdana;rounded=0;shadow=0;labelBackgroundColor=none;strokeWidth=1;" vertex="1" parent="NZkgFXMT-zY_Wta7pg8u-2">
          <mxGeometry x="20" y="480" width="100" height="60" as="geometry" />
        </mxCell>
        <mxCell id="NZkgFXMT-zY_Wta7pg8u-9" value="查询班组信息" style="swimlane;html=1;startSize=20;" vertex="1" parent="NZkgFXMT-zY_Wta7pg8u-1">
          <mxGeometry x="160" y="20" width="160" height="550" as="geometry" />
        </mxCell>
        <mxCell id="NZkgFXMT-zY_Wta7pg8u-10" style="edgeStyle=orthogonalEdgeStyle;rounded=0;orthogonalLoop=1;jettySize=auto;html=1;exitX=0.5;exitY=1;exitDx=0;exitDy=0;" edge="1" parent="NZkgFXMT-zY_Wta7pg8u-9">
          <mxGeometry relative="1" as="geometry">
            <mxPoint x="80" y="227.5" as="sourcePoint" />
            <mxPoint x="-90" y="270" as="targetPoint" />
            <Array as="points">
              <mxPoint x="80" y="270" />
              <mxPoint x="-89" y="270" />
            </Array>
          </mxGeometry>
        </mxCell>
        <mxCell id="NZkgFXMT-zY_Wta7pg8u-29" value="未查询到" style="edgeLabel;html=1;align=center;verticalAlign=middle;resizable=0;points=[];" vertex="1" connectable="0" parent="NZkgFXMT-zY_Wta7pg8u-10">
          <mxGeometry x="-0.76" relative="1" as="geometry">
            <mxPoint as="offset" />
          </mxGeometry>
        </mxCell>
        <mxCell id="NZkgFXMT-zY_Wta7pg8u-28" value="&lt;span style=&quot;font-size: 12px;&quot;&gt;查询班组人员&lt;/span&gt;" style="rhombus;whiteSpace=wrap;html=1;rounded=0;shadow=0;labelBackgroundColor=none;strokeWidth=1;fontFamily=Verdana;fontSize=8;align=center;" vertex="1" parent="NZkgFXMT-zY_Wta7pg8u-9">
          <mxGeometry x="30" y="160" width="100" height="75" as="geometry" />
        </mxCell>
        <mxCell id="NZkgFXMT-zY_Wta7pg8u-15" value="更新检修计划" style="swimlane;html=1;startSize=20;" vertex="1" parent="NZkgFXMT-zY_Wta7pg8u-1">
          <mxGeometry x="320" y="20" width="160" height="550" as="geometry" />
        </mxCell>
        <mxCell id="NZkgFXMT-zY_Wta7pg8u-16" value="&lt;span style=&quot;font-size: 12px;&quot;&gt;更新&lt;/span&gt;&lt;div&gt;&lt;span style=&quot;font-size: 12px;&quot;&gt;检修计划&lt;/span&gt;&lt;/div&gt;" style="whiteSpace=wrap;html=1;fontSize=8;fontFamily=Verdana;rounded=0;shadow=0;labelBackgroundColor=none;strokeWidth=1;" vertex="1" parent="NZkgFXMT-zY_Wta7pg8u-15">
          <mxGeometry x="30" y="270" width="100" height="60" as="geometry" />
        </mxCell>
        <mxCell id="NZkgFXMT-zY_Wta7pg8u-17" style="edgeStyle=orthogonalEdgeStyle;rounded=0;orthogonalLoop=1;jettySize=auto;html=1;exitX=0.5;exitY=1;exitDx=0;exitDy=0;" edge="1" parent="NZkgFXMT-zY_Wta7pg8u-15" source="NZkgFXMT-zY_Wta7pg8u-18" target="NZkgFXMT-zY_Wta7pg8u-16">
          <mxGeometry relative="1" as="geometry" />
        </mxCell>
        <mxCell id="NZkgFXMT-zY_Wta7pg8u-18" value="&lt;span style=&quot;font-size: 12px;&quot;&gt;计算&lt;/span&gt;&lt;br&gt;&lt;div&gt;&lt;span style=&quot;font-size: 12px;&quot;&gt;计划工作开始结束时间，计划停电开始结束时间&lt;/span&gt;&lt;/div&gt;" style="whiteSpace=wrap;html=1;fontSize=8;fontFamily=Verdana;rounded=0;shadow=0;labelBackgroundColor=none;strokeWidth=1;" vertex="1" parent="NZkgFXMT-zY_Wta7pg8u-15">
          <mxGeometry x="30" y="167.5" width="100" height="60" as="geometry" />
        </mxCell>
        <mxCell id="NZkgFXMT-zY_Wta7pg8u-19" value="主检修计划变更" style="swimlane;html=1;startSize=20;" vertex="1" parent="NZkgFXMT-zY_Wta7pg8u-1">
          <mxGeometry x="480" y="20" width="160" height="550" as="geometry" />
        </mxCell>
        <mxCell id="NZkgFXMT-zY_Wta7pg8u-37" style="edgeStyle=orthogonalEdgeStyle;rounded=0;orthogonalLoop=1;jettySize=auto;html=1;exitX=0.5;exitY=1;exitDx=0;exitDy=0;entryX=0.5;entryY=0;entryDx=0;entryDy=0;" edge="1" parent="NZkgFXMT-zY_Wta7pg8u-19" source="NZkgFXMT-zY_Wta7pg8u-22" target="NZkgFXMT-zY_Wta7pg8u-36">
          <mxGeometry relative="1" as="geometry" />
        </mxCell>
        <mxCell id="NZkgFXMT-zY_Wta7pg8u-22" value="&lt;span style=&quot;font-size: 12px;&quot;&gt;构建检修计划变更数据并入库&lt;/span&gt;" style="whiteSpace=wrap;html=1;fontSize=8;fontFamily=Verdana;rounded=0;shadow=0;labelBackgroundColor=none;strokeWidth=1;" vertex="1" parent="NZkgFXMT-zY_Wta7pg8u-19">
          <mxGeometry x="30" y="170" width="100" height="60" as="geometry" />
        </mxCell>
        <mxCell id="NZkgFXMT-zY_Wta7pg8u-39" style="edgeStyle=orthogonalEdgeStyle;rounded=0;orthogonalLoop=1;jettySize=auto;html=1;exitX=0.5;exitY=1;exitDx=0;exitDy=0;entryX=0.5;entryY=0;entryDx=0;entryDy=0;" edge="1" parent="NZkgFXMT-zY_Wta7pg8u-19" source="NZkgFXMT-zY_Wta7pg8u-36" target="NZkgFXMT-zY_Wta7pg8u-38">
          <mxGeometry relative="1" as="geometry" />
        </mxCell>
        <mxCell id="NZkgFXMT-zY_Wta7pg8u-36" value="&lt;span style=&quot;font-size: 12px;&quot;&gt;查询计划的&lt;/span&gt;&lt;div&gt;&lt;span style=&quot;font-size: 12px;&quot;&gt;组成计划&lt;/span&gt;&lt;/div&gt;" style="whiteSpace=wrap;html=1;fontSize=8;fontFamily=Verdana;rounded=0;shadow=0;labelBackgroundColor=none;strokeWidth=1;" vertex="1" parent="NZkgFXMT-zY_Wta7pg8u-19">
          <mxGeometry x="30" y="270" width="100" height="60" as="geometry" />
        </mxCell>
        <mxCell id="NZkgFXMT-zY_Wta7pg8u-38" value="&lt;span style=&quot;font-size: 12px;&quot;&gt;存在组成计划&lt;/span&gt;" style="rhombus;whiteSpace=wrap;html=1;rounded=0;shadow=0;labelBackgroundColor=none;strokeWidth=1;fontFamily=Verdana;fontSize=8;align=center;" vertex="1" parent="NZkgFXMT-zY_Wta7pg8u-19">
          <mxGeometry x="30" y="370" width="100" height="75" as="geometry" />
        </mxCell>
        <mxCell id="NZkgFXMT-zY_Wta7pg8u-23" value="" style="edgeStyle=orthogonalEdgeStyle;rounded=0;orthogonalLoop=1;jettySize=auto;html=1;" edge="1" parent="NZkgFXMT-zY_Wta7pg8u-1" source="NZkgFXMT-zY_Wta7pg8u-5">
          <mxGeometry relative="1" as="geometry">
            <mxPoint x="190" y="217.5" as="targetPoint" />
          </mxGeometry>
        </mxCell>
        <mxCell id="NZkgFXMT-zY_Wta7pg8u-24" value="是" style="edgeLabel;html=1;align=center;verticalAlign=middle;resizable=0;points=[];" vertex="1" connectable="0" parent="NZkgFXMT-zY_Wta7pg8u-23">
          <mxGeometry x="-0.5771" relative="1" as="geometry">
            <mxPoint as="offset" />
          </mxGeometry>
        </mxCell>
        <mxCell id="NZkgFXMT-zY_Wta7pg8u-25" style="edgeStyle=orthogonalEdgeStyle;rounded=0;orthogonalLoop=1;jettySize=auto;html=1;entryX=0.5;entryY=0;entryDx=0;entryDy=0;exitX=0.5;exitY=1;exitDx=0;exitDy=0;" edge="1" parent="NZkgFXMT-zY_Wta7pg8u-1" source="NZkgFXMT-zY_Wta7pg8u-16" target="NZkgFXMT-zY_Wta7pg8u-22">
          <mxGeometry relative="1" as="geometry">
            <mxPoint x="400" y="420" as="sourcePoint" />
            <Array as="points">
              <mxPoint x="400" y="390" />
              <mxPoint x="470" y="390" />
              <mxPoint x="470" y="150" />
              <mxPoint x="560" y="150" />
            </Array>
          </mxGeometry>
        </mxCell>
        <mxCell id="NZkgFXMT-zY_Wta7pg8u-30" value="" style="edgeStyle=orthogonalEdgeStyle;rounded=0;orthogonalLoop=1;jettySize=auto;html=1;" edge="1" parent="NZkgFXMT-zY_Wta7pg8u-1" source="NZkgFXMT-zY_Wta7pg8u-28" target="NZkgFXMT-zY_Wta7pg8u-18">
          <mxGeometry relative="1" as="geometry" />
        </mxCell>
        <mxCell id="NZkgFXMT-zY_Wta7pg8u-31" value="查询到" style="edgeLabel;html=1;align=center;verticalAlign=middle;resizable=0;points=[];" vertex="1" connectable="0" parent="NZkgFXMT-zY_Wta7pg8u-30">
          <mxGeometry x="-0.56" y="-1" relative="1" as="geometry">
            <mxPoint x="7" y="-1" as="offset" />
          </mxGeometry>
        </mxCell>
        <mxCell id="NZkgFXMT-zY_Wta7pg8u-32" value="组成检修计划变更" style="swimlane;html=1;startSize=20;" vertex="1" parent="1">
          <mxGeometry x="710" y="40" width="160" height="550" as="geometry" />
        </mxCell>
        <mxCell id="NZkgFXMT-zY_Wta7pg8u-33" value="&lt;span style=&quot;font-size: 12px;&quot;&gt;成功返回&lt;/span&gt;" style="whiteSpace=wrap;html=1;fontSize=8;fontFamily=Verdana;rounded=0;shadow=0;labelBackgroundColor=none;strokeWidth=1;" vertex="1" parent="NZkgFXMT-zY_Wta7pg8u-32">
          <mxGeometry x="30" y="480" width="100" height="60" as="geometry" />
        </mxCell>
        <mxCell id="NZkgFXMT-zY_Wta7pg8u-34" style="edgeStyle=orthogonalEdgeStyle;rounded=0;orthogonalLoop=1;jettySize=auto;html=1;entryX=0.5;entryY=0;entryDx=0;entryDy=0;exitX=0.5;exitY=1;exitDx=0;exitDy=0;" edge="1" parent="NZkgFXMT-zY_Wta7pg8u-32" source="NZkgFXMT-zY_Wta7pg8u-50" target="NZkgFXMT-zY_Wta7pg8u-33">
          <mxGeometry relative="1" as="geometry">
            <mxPoint x="80" y="350" as="sourcePoint" />
          </mxGeometry>
        </mxCell>
        <mxCell id="NZkgFXMT-zY_Wta7pg8u-51" style="edgeStyle=orthogonalEdgeStyle;rounded=0;orthogonalLoop=1;jettySize=auto;html=1;exitX=0.5;exitY=1;exitDx=0;exitDy=0;entryX=0.5;entryY=0;entryDx=0;entryDy=0;" edge="1" parent="NZkgFXMT-zY_Wta7pg8u-32" source="NZkgFXMT-zY_Wta7pg8u-35" target="NZkgFXMT-zY_Wta7pg8u-50">
          <mxGeometry relative="1" as="geometry" />
        </mxCell>
        <mxCell id="NZkgFXMT-zY_Wta7pg8u-35" value="&lt;span style=&quot;font-size: 12px;&quot;&gt;更新&lt;/span&gt;&lt;div&gt;&lt;span style=&quot;font-size: 12px;&quot;&gt;组成检修计划&lt;/span&gt;&lt;span style=&quot;font-size: 12px; background-color: transparent; color: light-dark(rgb(0, 0, 0), rgb(255, 255, 255));&quot;&gt;工作开始结束时间，停电开始结束时间&lt;/span&gt;&lt;/div&gt;" style="whiteSpace=wrap;html=1;fontSize=8;fontFamily=Verdana;rounded=0;shadow=0;labelBackgroundColor=none;strokeWidth=1;" vertex="1" parent="NZkgFXMT-zY_Wta7pg8u-32">
          <mxGeometry x="30" y="170" width="100" height="60" as="geometry" />
        </mxCell>
        <mxCell id="NZkgFXMT-zY_Wta7pg8u-50" value="&lt;span style=&quot;font-size: 12px;&quot;&gt;构建组成检修计划变更数据并入库&lt;/span&gt;" style="whiteSpace=wrap;html=1;fontSize=8;fontFamily=Verdana;rounded=0;shadow=0;labelBackgroundColor=none;strokeWidth=1;" vertex="1" parent="NZkgFXMT-zY_Wta7pg8u-32">
          <mxGeometry x="30" y="270" width="100" height="60" as="geometry" />
        </mxCell>
        <mxCell id="NZkgFXMT-zY_Wta7pg8u-40" style="edgeStyle=orthogonalEdgeStyle;rounded=0;orthogonalLoop=1;jettySize=auto;html=1;exitX=1;exitY=0.5;exitDx=0;exitDy=0;entryX=0.5;entryY=0;entryDx=0;entryDy=0;" edge="1" parent="1" source="NZkgFXMT-zY_Wta7pg8u-38" target="NZkgFXMT-zY_Wta7pg8u-35">
          <mxGeometry relative="1" as="geometry">
            <Array as="points">
              <mxPoint x="700" y="448" />
              <mxPoint x="700" y="170" />
              <mxPoint x="790" y="170" />
            </Array>
          </mxGeometry>
        </mxCell>
        <mxCell id="NZkgFXMT-zY_Wta7pg8u-43" value="是" style="edgeLabel;html=1;align=center;verticalAlign=middle;resizable=0;points=[];" vertex="1" connectable="0" parent="NZkgFXMT-zY_Wta7pg8u-40">
          <mxGeometry x="-0.9634" relative="1" as="geometry">
            <mxPoint as="offset" />
          </mxGeometry>
        </mxCell>
        <mxCell id="NZkgFXMT-zY_Wta7pg8u-41" style="edgeStyle=orthogonalEdgeStyle;rounded=0;orthogonalLoop=1;jettySize=auto;html=1;exitX=0.5;exitY=1;exitDx=0;exitDy=0;" edge="1" parent="1" source="NZkgFXMT-zY_Wta7pg8u-38" target="NZkgFXMT-zY_Wta7pg8u-33">
          <mxGeometry relative="1" as="geometry">
            <Array as="points">
              <mxPoint x="630" y="505" />
              <mxPoint x="790" y="505" />
            </Array>
          </mxGeometry>
        </mxCell>
        <mxCell id="NZkgFXMT-zY_Wta7pg8u-42" value="否" style="edgeLabel;html=1;align=center;verticalAlign=middle;resizable=0;points=[];" vertex="1" connectable="0" parent="NZkgFXMT-zY_Wta7pg8u-41">
          <mxGeometry x="-0.9504" y="2" relative="1" as="geometry">
            <mxPoint as="offset" />
          </mxGeometry>
        </mxCell>
      </root>
    </mxGraphModel>
  </diagram>
</mxfile>
